<svg viewBox="0 0 1304 254" fill="none" xmlns="http://www.w3.org/2000/svg">
<path fill-rule="evenodd" clip-rule="evenodd" d="M581 0C589.284 0 596 6.71573 596 15V47.1243C596 49.9615 597.566 53.8868 602.817 57.6757C608.047 61.4498 616.026 64.2487 625.52 64.2487H677.48C692.573 64.2487 706.855 68.6411 717.737 76.4937C728.6 84.3315 737 96.4684 737 111.373V170C737 178.284 730.284 185 722 185C713.716 185 707 178.284 707 170V111.373C707 108.536 705.434 104.611 700.183 100.822C694.953 97.0476 686.974 94.2487 677.48 94.2487H625.52C610.427 94.2487 596.145 89.8563 585.263 82.0037C574.4 74.1659 566 62.029 566 47.1243V15C566 6.71573 572.716 0 581 0ZM185 32C193.284 32 200 38.7157 200 47V152C200 154.761 202.239 157 205 157H327C335.284 157 342 163.716 342 172C342 180.284 335.284 187 327 187H205C185.67 187 170 171.33 170 152V47C170 38.7157 176.716 32 185 32ZM395 62C392.239 62 390 64.2386 390 67V152C390 154.761 392.239 157 395 157H496C498.761 157 501 154.761 501 152V67C501 64.2386 498.761 62 496 62H395ZM360 67C360 47.67 375.67 32 395 32H496C515.33 32 531 47.67 531 67V152C531 171.33 515.33 187 496 187H395C375.67 187 360 171.33 360 152V67ZM790 62C787.239 62 785 64.2386 785 67V152C785 154.761 787.239 157 790 157H867.326C875.61 157 882.326 163.716 882.326 172C882.326 180.284 875.61 187 867.326 187H790C770.67 187 755 171.33 755 152V67C755 47.67 770.67 32 790 32H892C911.33 32 927 47.67 927 67V172C927 180.284 920.284 187 912 187C903.716 187 897 180.284 897 172V67C897 64.2386 894.761 62 892 62H790ZM944 47C944 38.7157 950.716 32 959 32H1099C1118.33 32 1134 47.67 1134 67V172C1134 180.284 1127.28 187 1119 187C1110.72 187 1104 180.284 1104 172V67C1104 64.2386 1101.76 62 1099 62H992.028V172C992.028 180.284 985.312 187 977.028 187C968.744 187 962.028 180.284 962.028 172V62H959C950.716 62 944 55.2843 944 47ZM581 100C589.284 100 596 106.716 596 115V201C596 220.33 580.33 236 561 236H523C514.716 236 508 229.284 508 221C508 212.716 514.716 206 523 206H561C563.761 206 566 203.761 566 201V115C566 106.716 572.716 100 581 100Z" fill="#EAF5FC"/>
<path fill-rule="evenodd" clip-rule="evenodd" d="M31.2628 100.464C29.3227 102.417 29.3227 105.583 31.2628 107.536L105.635 182.392C111.455 188.25 111.455 197.748 105.635 203.606C99.8144 209.465 90.3778 209.465 84.5575 203.606L10.1856 128.75C-3.3952 115.081 -3.39517 92.919 10.1856 79.2498L84.5575 4.39366C90.3778 -1.46455 99.8144 -1.46455 105.635 4.39366C111.455 10.2519 111.455 19.7499 105.635 25.6081L31.2628 100.464Z" fill="#56AE9E"/>
<path fill-rule="evenodd" clip-rule="evenodd" d="M1272.74 100.464C1274.68 102.417 1274.68 105.583 1272.74 107.536L1198.37 182.392C1192.54 188.25 1192.54 197.748 1198.37 203.606C1204.19 209.465 1213.62 209.465 1219.44 203.606L1293.81 128.75C1307.4 115.081 1307.4 92.919 1293.81 79.2498L1219.44 4.39366C1213.62 -1.46455 1204.19 -1.46455 1198.37 4.39366C1192.54 10.2519 1192.54 19.7499 1198.37 25.6081L1272.74 100.464Z" fill="#56AE9E"/>
<path d="M638.477 253.517V247.667H647.093C649.275 247.667 651.185 247.216 652.822 246.314C654.458 245.379 655.726 244.074 656.624 242.398C657.555 240.722 658.02 238.74 658.02 236.452C658.02 234.228 657.555 232.294 656.624 230.651C655.694 228.975 654.41 227.686 652.773 226.783C651.137 225.849 649.243 225.381 647.093 225.381H638.332V219.532H647.19C649.693 219.532 652.003 219.951 654.121 220.789C656.271 221.627 658.133 222.819 659.705 224.366C661.31 225.881 662.545 227.669 663.412 229.732C664.31 231.795 664.759 234.051 664.759 236.5C664.759 238.949 664.31 241.221 663.412 243.316C662.545 245.379 661.326 247.184 659.753 248.731C658.181 250.245 656.319 251.422 654.169 252.26C652.051 253.098 649.757 253.517 647.286 253.517H638.477ZM634 253.517V219.532H640.547V253.517H634Z" fill="#56AE9E"/>
<path d="M695.474 253.517V219.532H702.021V253.517H695.474ZM700.288 253.517V247.715H719.013V253.517H700.288ZM700.288 238.965V233.358H717.328V238.965H700.288ZM700.288 225.333V219.532H718.772V225.333H700.288Z" fill="#56AE9E"/>
<path d="M760.775 253.517L747.441 219.532H754.517L764.818 247.039H762.075L772.472 219.532H779.452L765.974 253.517H760.775Z" fill="#56AE9E"/>
<path d="M865.78 253.517L849.991 236.113C848.804 234.792 847.922 233.535 847.344 232.343C846.766 231.118 846.477 229.78 846.477 228.33C846.477 226.622 846.895 225.059 847.729 223.641C848.596 222.223 849.767 221.095 851.243 220.257C852.751 219.419 854.468 219 856.394 219C857.902 219 859.25 219.242 860.437 219.725C861.625 220.176 862.652 220.773 863.518 221.514C864.417 222.255 865.139 223.045 865.684 223.883L861.352 227.943C860.678 227.009 859.956 226.284 859.186 225.768C858.415 225.22 857.517 224.946 856.49 224.946C855.399 224.946 854.484 225.268 853.746 225.913C853.008 226.558 852.639 227.363 852.639 228.33C852.639 229.233 852.832 230.006 853.217 230.651C853.602 231.263 854.131 231.972 854.805 232.778L873.242 253.517H865.78ZM854.468 254C852.158 254 850.136 253.549 848.403 252.646C846.702 251.744 845.37 250.519 844.408 248.972C843.477 247.393 843.012 245.605 843.012 243.606C843.012 241.544 843.557 239.691 844.648 238.047C845.771 236.403 847.424 235.066 849.606 234.035L852.446 238.095C851.355 238.611 850.521 239.304 849.943 240.174C849.398 241.012 849.125 242.059 849.125 243.316C849.125 244.283 849.35 245.137 849.799 245.878C850.248 246.587 850.89 247.151 851.724 247.57C852.559 247.957 853.522 248.151 854.613 248.151C855.993 248.151 857.148 247.86 858.078 247.28C859.009 246.7 859.747 245.959 860.293 245.057L864.529 249.698C863.887 250.471 863.053 251.18 862.026 251.825C860.999 252.469 859.844 253.001 858.56 253.42C857.276 253.807 855.912 254 854.468 254Z" fill="#56AE9E"/>
<path d="M945.832 253.517V220.257H952.427V253.517H945.832ZM935.049 225.381V219.532H963.21V225.381H935.049Z" fill="#56AE9E"/>
<path d="M993.242 253.517V219.532H999.789V253.517H993.242ZM998.056 253.517V247.715H1016.78V253.517H998.056ZM998.056 238.965V233.358H1015.1V238.965H998.056ZM998.056 225.333V219.532H1016.54V225.333H998.056Z" fill="#56AE9E"/>
<path d="M1063.41 254C1060.93 254 1058.64 253.565 1056.52 252.695C1054.4 251.792 1052.54 250.552 1050.94 248.972C1049.37 247.361 1048.15 245.492 1047.28 243.365C1046.44 241.238 1046.03 238.949 1046.03 236.5C1046.03 234.051 1046.44 231.762 1047.28 229.635C1048.15 227.508 1049.37 225.655 1050.94 224.076C1052.54 222.497 1054.39 221.256 1056.47 220.354C1058.59 219.451 1060.9 219 1063.41 219C1066.1 219 1068.48 219.451 1070.53 220.354C1072.58 221.224 1074.4 222.432 1075.97 223.979L1071.54 228.427C1070.61 227.395 1069.47 226.59 1068.12 226.01C1066.77 225.43 1065.2 225.14 1063.41 225.14C1061.83 225.14 1060.39 225.413 1059.07 225.961C1057.79 226.477 1056.67 227.25 1055.7 228.282C1054.74 229.281 1054 230.489 1053.49 231.907C1052.98 233.293 1052.72 234.824 1052.72 236.5C1052.72 238.208 1052.98 239.755 1053.49 241.141C1054 242.527 1054.74 243.735 1055.7 244.767C1056.67 245.766 1057.79 246.539 1059.07 247.087C1060.39 247.635 1061.83 247.909 1063.41 247.909C1065.3 247.909 1066.92 247.619 1068.27 247.039C1069.65 246.459 1070.8 245.637 1071.73 244.573L1076.16 249.021C1074.59 250.6 1072.76 251.825 1070.67 252.695C1068.59 253.565 1066.16 254 1063.41 254Z" fill="#56AE9E"/>
<path d="M1106.23 253.517V219.532H1112.77V253.517H1106.23ZM1127.45 253.517V219.532H1134V253.517H1127.45ZM1110.36 238.869V233.068H1129.28V238.869H1110.36Z" fill="#56AE9E"/>
</svg>
