<svg viewBox="0 0 964 236" fill="none" xmlns="http://www.w3.org/2000/svg">
<path fill-rule="evenodd" clip-rule="evenodd" d="M411 0C419.284 0 426 6.71573 426 15V47.1243C426 49.9615 427.566 53.8868 432.817 57.6757C438.047 61.4498 446.026 64.2487 455.52 64.2487H507.48C522.573 64.2487 536.855 68.6411 547.737 76.4937C558.6 84.3315 567 96.4684 567 111.373V170C567 178.284 560.284 185 552 185C543.716 185 537 178.284 537 170V111.373C537 108.536 535.434 104.611 530.183 100.822C524.953 97.0476 516.974 94.2487 507.48 94.2487H455.52C440.427 94.2487 426.145 89.8563 415.263 82.0037C404.4 74.1659 396 62.029 396 47.1243V15C396 6.71573 402.716 0 411 0ZM15 32C23.2843 32 30 38.7157 30 47V152C30 154.761 32.2386 157 35 157H157C165.284 157 172 163.716 172 172C172 180.284 165.284 187 157 187H35C15.67 187 0 171.33 0 152V47C0 38.7157 6.71573 32 15 32ZM225 62C222.239 62 220 64.2386 220 67V152C220 154.761 222.239 157 225 157H326C328.761 157 331 154.761 331 152V67C331 64.2386 328.761 62 326 62H225ZM190 67C190 47.67 205.67 32 225 32H326C345.33 32 361 47.67 361 67V152C361 171.33 345.33 187 326 187H225C205.67 187 190 171.33 190 152V67ZM620 62C617.239 62 615 64.2386 615 67V152C615 154.761 617.239 157 620 157H697.326C705.61 157 712.326 163.716 712.326 172C712.326 180.284 705.61 187 697.326 187H620C600.67 187 585 171.33 585 152V67C585 47.67 600.67 32 620 32H722C741.33 32 757 47.67 757 67V172C757 180.284 750.284 187 742 187C733.716 187 727 180.284 727 172V67C727 64.2386 724.761 62 722 62H620ZM774 47C774 38.7157 780.716 32 789 32H929C948.33 32 964 47.67 964 67V172C964 180.284 957.284 187 949 187C940.716 187 934 180.284 934 172V67C934 64.2386 931.761 62 929 62H822.028V172C822.028 180.284 815.312 187 807.028 187C798.744 187 792.028 180.284 792.028 172V62H789C780.716 62 774 55.2843 774 47ZM411 100C419.284 100 426 106.716 426 115V201C426 220.33 410.33 236 391 236H353C344.716 236 338 229.284 338 221C338 212.716 344.716 206 353 206H391C393.761 206 396 203.761 396 201V115C396 106.716 402.716 100 411 100Z" fill="#121F2B"/>
</svg>
